
<svg width="306px" height="513px" viewBox="0 0 306 513" version="1.1" xmlns="http://www.w3.org/2000/svg" xmlns:xlink="http://www.w3.org/1999/xlink">
    <g id="Front-page" stroke="none" stroke-width="1" fill="none" fill-rule="evenodd">
        <g id="Dekstop-HD" transform="translate(-246.000000, -198.000000)">
            <g id="LOGO" transform="translate(247.000000, 199.000000)">
                <polygon id="Path" stroke="#4D6367" fill="#4D6367" points="304 -1.13990201e-14 304 511 210.016281 511 210.016281 255.5 169.053939 255.5 125.646054 445.537817 114.490837 466.436549 54.2621355 498.930494 46.1412911 442.639376 84.4290909 255.5 98.8720389 185.849077 210.016281 185.849077 210.016281 132.072942 21.8068874 51.1840972 -1.47607481e-14 -1.13990201e-14 73.0463636 -1.13990201e-14 210.016281 51.1840972 210.016281 0"></polygon>
                <circle id="Oval" fill="#3C3842" cx="86" cy="431" r="18"></circle>
                <circle id="Oval" fill="#3C3842" cx="70" cy="38" r="18"></circle>
                <circle id="Oval" fill="#3C3842" cx="257" cy="161" r="18"></circle>
                <path d="M69,38 C163.743001,38 225.305445,79.0799483 253.687332,161.239845 C265.864518,193.911296 244.469703,213.659633 189.502886,220.484854 C134.536069,227.310075 100.23153,297.815123 86.5892697,432" id="Path-2" stroke="#3C3842" stroke-width="5"></path>
                <circle id="Oval" fill="#3C3842" cx="257" cy="481" r="18"></circle>
                <circle id="Oval" fill="#3C3842" cx="257" cy="30" r="18"></circle>
                <line x1="259" y1="30.6875" x2="256.333333" y2="481" id="Path-3" stroke="#3C3842" stroke-width="5"></line>
            </g>
        </g>
    </g>
</svg>